<svg width="24" height="24" viewBox="0 0 24 24" fill="none" xmlns="http://www.w3.org/2000/svg">
<path d="M6.15077 13.1014C7.31014 12.642 8.23983 12.7623 8.93984 13.4623C9.63984 14.1623 9.84764 15.2779 9.56326 16.8092C9.34452 17.9467 8.86328 18.8217 8.11952 19.4342C7.39764 20.0248 6.55546 20.3201 5.59296 20.3201C4.28045 20.3201 3.37265 19.817 2.86952 18.8107C2.3664 17.7826 2.26796 16.4045 2.57421 14.6764C2.7492 13.7357 3.03358 12.7842 3.42732 11.8217C3.82109 10.8592 4.34609 9.87481 5.00232 8.86856C5.65858 7.86232 6.51171 6.9873 7.56171 6.24356C8.61171 5.4998 9.77108 5.01856 11.0398 4.7998L10.7117 8.27792C9.63984 8.49668 8.68827 9.05449 7.85703 9.95137C7.02576 10.8264 6.45701 11.8764 6.15077 13.1014ZM16.0273 13.1014C17.1867 12.642 18.1164 12.7623 18.8164 13.4623C19.5164 14.1623 19.7242 15.2779 19.4398 16.8092C19.2211 17.9467 18.7398 18.8217 17.9961 19.4342C17.2742 20.0248 16.432 20.3201 15.4695 20.3201C14.157 20.3201 13.2492 19.817 12.7461 18.8107C12.243 17.7826 12.1445 16.4045 12.4508 14.6764C12.6258 13.7357 12.9102 12.7842 13.3039 11.8217C13.6976 10.8592 14.2226 9.87481 14.8789 8.86856C15.5352 7.86232 16.3883 6.9873 17.4383 6.24356C18.4883 5.4998 19.6477 5.01856 20.9164 4.7998L20.5883 8.27792C19.5164 8.49668 18.5648 9.05449 17.7336 9.95137C16.9023 10.8264 16.3336 11.8764 16.0273 13.1014Z" fill="#F4F4F4"/>
</svg>
