<svg width="20" height="20" viewBox="0 0 20 20" fill="none" xmlns="http://www.w3.org/2000/svg">
<path d="M4.6 5.71429H3.4C3.0675 5.71429 2.8 6.00089 2.8 6.35714V9.14286H2.2C2.09 9.14286 2 9.23929 2 9.35714V10.6429C2 10.7607 2.09 10.8571 2.2 10.8571H2.8V13.6429C2.8 13.9991 3.0675 14.2857 3.4 14.2857H4.6C4.9325 14.2857 5.2 13.9991 5.2 13.6429V6.35714C5.2 6.00089 4.9325 5.71429 4.6 5.71429ZM17.8 9.14286H17.2V6.35714C17.2 6.00089 16.9325 5.71429 16.6 5.71429H15.4C15.0675 5.71429 14.8 6.00089 14.8 6.35714V13.6429C14.8 13.9991 15.0675 14.2857 15.4 14.2857H16.6C16.9325 14.2857 17.2 13.9991 17.2 13.6429V10.8571H17.8C17.91 10.8571 18 10.7607 18 10.6429V9.35714C18 9.23929 17.91 9.14286 17.8 9.14286ZM13.4 4H12.2C11.8675 4 11.6 4.28661 11.6 4.64286V9.14286H8.4V4.64286C8.4 4.28661 8.1325 4 7.8 4H6.6C6.2675 4 6 4.28661 6 4.64286V15.3571C6 15.7134 6.2675 16 6.6 16H7.8C8.1325 16 8.4 15.7134 8.4 15.3571V10.8571H11.6V15.3571C11.6 15.7134 11.8675 16 12.2 16H13.4C13.7325 16 14 15.7134 14 15.3571V4.64286C14 4.28661 13.7325 4 13.4 4Z" fill="#242424"/>
</svg>
