<svg aria-hidden="true" style="position: absolute; width: 0; height: 0; overflow: hidden;" version="1.1" xmlns="http://www.w3.org/2000/svg" xmlns:xlink="http://www.w3.org/1999/xlink">
<defs>
 <symbol id="icon-logo" viewBox="0 0 176 32">
<path d="M6.64 17.707 0 6.667h3.973l4.453 7.653h.053l4.453-7.653h3.973l-6.64 11.04v7.627H6.638v-7.627zM16.894 22.267V9.734l3.067-3.067h9.6l3.067 3.067v12.533l-3.067 3.067h-9.6l-3.067-3.067zm10.746-.027L29 20.88v-9.76l-1.36-1.36h-5.76l-1.36 1.36v9.76l1.36 1.36h5.76zM35.166 22.133V6.666h3.627v14.213l1.36 1.36h5.227l1.36-1.36V6.666h3.627v15.467l-3.2 3.2h-8.8l-3.2-3.2zM67.837 19.147v6.187H64.21v-5.36l-1.6-1.787h-5.813v7.147H53.17V6.667h11.707l2.853 2.88V15.2l-1.813 1.84 1.92 2.107zM56.797 15.2h6.427l.933-.933V10.64l-.933-.933h-6.427V15.2zM77.098 6.667h13.493v3.067h-9.867v4.72h9.093v3.013h-9.093v4.8h9.867v3.067H77.098V6.667zM92.603 6.667h3.253l8.32 12.667h.053V6.667h3.493v18.667h-3.253l-8.32-12.64h-.053v12.64h-3.493V6.667zM110.53 6.667h13.493v3.067h-9.867v4.72h9.093v3.013h-9.093v4.8h9.867v3.067H110.53V6.667zM140.703 19.147v6.187h-3.627v-5.36l-1.6-1.787h-5.814v7.147h-3.627V6.667h11.707l2.853 2.88V15.2l-1.813 1.84 1.92 2.107zM129.662 15.2h6.427l.933-.933V10.64l-.933-.933h-6.427V15.2zM143.097 22.267V9.734l3.067-3.067h9.28l3.013 3.013v2.853h-3.627v-1.52l-1.253-1.253h-5.493l-1.36 1.36v9.76l1.36 1.36h5.547l1.307-1.307v-2.907h-4v-3.093h7.52v7.333l-3.067 3.067h-9.227l-3.067-3.067zM165.104 17.707l-6.64-11.04h3.973l4.453 7.653h.053l4.453-7.653h3.973l-6.64 11.04v7.627h-3.627v-7.627z"/>
</symbol>
<symbol id="icon-youtube" viewBox="0 0 32 32">
<path d="M24.24 6c-1.36-0.080-4.16-0.16-8.4-0.16h-0.56c-4.080 0-6.8 0.080-8.16 0.24-1.84 0.16-3.12 0.64-3.84 1.28-0.64 0.56-1.12 1.6-1.28 2.96-0.080 0.88-0.16 2.72-0.16 5.52v0.4c0 2.64 0.080 4.48 0.24 5.36 0.24 1.28 0.64 2.24 1.44 2.8 0.8 0.64 2.16 1.040 4.080 1.2 1.36 0.080 4.16 0.16 8.4 0.16h0.56c4.080 0 6.8-0.080 8.16-0.24 1.84-0.16 3.12-0.64 3.84-1.28 0.64-0.56 1.12-1.6 1.28-2.96 0.080-0.88 0.16-2.72 0.16-5.52v-0.4c0-2.64-0.080-4.48-0.24-5.36-0.24-1.28-0.64-2.24-1.44-2.8-0.8-0.64-2.16-1.040-4.080-1.2zM21.12 15.84l-8.8 5.28v-10.56l8.8 5.28z"></path>
</symbol>
<symbol id="icon-instagram" viewBox="0 0 32 32">
<path d="M28.718 10.757c-0.016-1.134-0.233-2.213-0.617-3.208l0.021 0.063c-0.682-1.722-2.021-3.059-3.7-3.722l-0.044-0.015c-0.921-0.356-1.985-0.573-3.097-0.596l-0.010-0c-1.367-0.061-1.801-0.078-5.271-0.078-3.472 0-3.917 0-5.274 0.078-1.063 0.023-2.113 0.223-3.106 0.597-1.724 0.678-3.064 2.015-3.73 3.693l-0.015 0.044c-0.357 0.918-0.574 1.981-0.596 3.091l-0 0.009c-0.061 1.367-0.080 1.8-0.080 5.265 0 3.466 0 3.909 0.080 5.265 0.023 1.063 0.223 2.11 0.597 3.104 0.682 1.721 2.021 3.058 3.7 3.721l0.044 0.015c0.917 0.37 1.979 0.601 3.091 0.638l0.016 0c1.369 0.061 1.802 0.080 5.274 0.080 3.471 0 3.917 0 5.274-0.080 1.122-0.023 2.187-0.239 3.172-0.616l-0.064 0.022c1.722-0.68 3.061-2.016 3.727-3.693l0.016-0.044c0.374-0.994 0.574-2.041 0.595-3.104 0.062-1.366 0.080-1.799 0.080-5.266-0.003-3.465-0.003-3.905-0.082-5.263zM15.989 22.531c-0.002 0-0.004 0-0.007 0-3.624 0-6.563-2.937-6.565-6.561v-0c0.003-3.624 2.941-6.561 6.566-6.561 0.002 0 0.004 0 0.006 0h-0c3.629 0 6.571 2.937 6.571 6.561-0.004 3.624-2.942 6.56-6.567 6.56-0.002 0-0.003 0-0.005 0h0zM22.823 10.696c-0.845 0-1.53-0.685-1.53-1.53s0.685-1.53 1.53-1.53v0c0.012-0 0.027-0.001 0.042-0.001 0.845 0 1.53 0.685 1.53 1.53s-0.685 1.53-1.53 1.53c-0.015 0-0.029-0-0.044-0.001l0.002 0z"></path>
<path d="M15.992 19.976c2.211 0 4.004-1.793 4.004-4.004s-1.793-4.004-4.004-4.004v0c-2.211 0-4.004 1.793-4.004 4.004s1.793 4.004 4.004 4.004v0z"></path>
</symbol>
<symbol id="icon-facebook" viewBox="0 0 32 32">
<path d="M19.52 4.64h0.96v3.6h-1.2c-0.48 0-0.96 0-1.2 0.24s-0.24 0.48-0.24 1.040v1.28h2.64v3.040h-2.64v13.2h-4.080v-13.28h-2.16v-3.040h2.16v-1.040c0-1.76 0.24-3.040 0.72-3.6 0.72-1.040 2.16-1.52 4.32-1.52 0.24 0.080 0.48 0.080 0.72 0.080z"></path>
</symbol>
<symbol id="burger" viewBox="0 0 32 32">
<path stroke-linejoin="round" stroke-linecap="round" stroke-miterlimit="4" stroke-width="2" d="M28 13.333h-24"></path>
<path stroke-linejoin="round" stroke-linecap="round" stroke-miterlimit="4" stroke-width="2" d="M28 8h-24"></path>
<path stroke-linejoin="round" stroke-linecap="round" stroke-miterlimit="4" stroke-width="2" d="M28 18.667h-24"></path>
<path stroke-linejoin="round" stroke-linecap="round" stroke-miterlimit="4" stroke-width="2" d="M28 24h-24"></path>
</symbol>
<symbol id="icon-x" viewBox="0 0 32 32">
<path d="M24.707 8.707c0.391-0.391 0.391-1.024 0-1.414s-1.024-0.391-1.414 0l1.414 1.414zM7.293 23.293c-0.391 0.391-0.391 1.024 0 1.414s1.024 0.391 1.414 0l-1.414-1.414zM23.293 7.293l-16 16 1.414 1.414 16-16-1.414-1.414z"></path>
<path d="M8.707 7.293c-0.391-0.391-1.024-0.391-1.414 0s-0.391 1.024 0 1.414l1.414-1.414zM23.293 24.707c0.391 0.391 1.024 0.391 1.414 0s0.391-1.024 0-1.414l-1.414 1.414zM7.293 8.707l16 16 1.414-1.414-16-16-1.414 1.414z"></path>
</symbol>
</defs>
</svg>